<svg width="110" height="110" viewBox="0 0 110 110" fill="none" xmlns="http://www.w3.org/2000/svg">
  <rect width="110" height="110" rx="20" fill="white"></rect>
  <g clip-path="url(#clip0)">
    <path d="M85.2847 29.7208V34.7908H44.9947C44.8247 34.7908 44.6547 34.8008 44.4947 34.8008C44.4147 34.8008 44.3447 34.8108 44.2647 34.8108C44.1947 34.8208 44.1147 34.8208 44.0447 34.8308C44.0047 34.8308 43.9647 34.8308 43.9247 34.8408L43.5647 34.8708C43.3847 34.8908 43.2047 34.9108 43.0247 34.9408C42.8947 34.9608 42.7547 34.9808 42.6247 35.0108H42.6147C42.5247 35.0308 42.4347 35.0408 42.3547 35.0608C42.2647 35.0808 42.1747 35.1008 42.0847 35.1208C41.9147 35.1708 41.7847 35.2008 41.6447 35.2408C41.6147 35.2508 41.5847 35.2608 41.5547 35.2708L41.3147 35.3408C41.2347 35.3708 41.1647 35.3908 41.0847 35.4108C40.9447 35.4608 40.8047 35.5108 40.6747 35.5608C40.5047 35.6208 40.3747 35.6708 40.2447 35.7208C40.1047 35.7908 39.9647 35.8508 39.8247 35.9208C39.7247 35.9608 39.6247 36.0108 39.5347 36.0608C39.4047 36.1208 39.2847 36.1908 39.1647 36.2608C39.0147 36.3408 38.9047 36.4108 38.7847 36.4808C38.5347 36.6308 38.2847 36.8008 38.0447 36.9708C37.9447 37.0408 37.8447 37.1208 37.7447 37.2008C37.5747 37.3208 37.4847 37.3908 37.4047 37.4608C37.3747 37.4908 37.3447 37.5108 37.3047 37.5408C37.1447 37.6708 37.0347 37.7708 36.9247 37.8708C36.7947 37.9808 36.6847 38.0908 36.5747 38.2008C36.4547 38.3108 36.3347 38.4308 36.2247 38.5408V38.5608C36.1447 38.6408 36.0647 38.7208 35.9947 38.8008L35.8347 38.9708C35.7347 39.0908 35.6447 39.1908 35.5547 39.2908C35.4547 39.4108 35.3547 39.5408 35.2547 39.6608C35.1447 39.8008 35.0547 39.9208 34.9747 40.0308C34.8947 40.1508 34.8447 40.2208 34.8047 40.2808C34.7647 40.3408 34.7347 40.3908 34.6947 40.4408C34.5147 40.7008 34.3547 40.9708 34.2047 41.2408C34.1247 41.3808 34.0447 41.5108 33.9747 41.6508C33.9347 41.7208 33.8947 41.8008 33.8647 41.8808C33.8047 41.9808 33.7647 42.0808 33.7147 42.1808C33.6847 42.2508 33.6547 42.3108 33.6247 42.3808H28.3047C28.3547 42.2208 28.3947 42.0708 28.4447 41.9208C28.4847 41.7608 28.5447 41.6108 28.5947 41.4608C28.6447 41.3108 28.6947 41.1508 28.7547 41.0108C28.8047 40.8608 28.8647 40.7108 28.9247 40.5608C29.0247 40.3108 29.1347 40.0608 29.2447 39.8208C29.3247 39.6608 29.3947 39.5008 29.4747 39.3508C29.5847 39.1108 29.7147 38.8908 29.8447 38.6608C29.9847 38.4108 30.1247 38.1708 30.2847 37.9208C30.3547 37.8108 30.4347 37.6908 30.5147 37.5708L30.6947 37.3008C30.7547 37.2108 30.8247 37.1208 30.8847 37.0308C31.0147 36.8608 31.1447 36.6908 31.2747 36.5208C31.3447 36.4208 31.4247 36.3308 31.4947 36.2508C31.5647 36.1608 31.6347 36.0808 31.7047 35.9908C31.7747 35.9108 31.8347 35.8308 31.9047 35.7508C31.9747 35.6708 32.0447 35.5908 32.1247 35.5108C32.2347 35.3808 32.3247 35.2808 32.4247 35.1808C32.5147 35.0908 32.5947 34.9908 32.6847 34.9008L32.7347 34.8608C36.1447 31.4308 40.2347 29.7108 45.0247 29.7108H85.3147L85.2847 29.7208Z" fill="#409B62"></path>
    <path d="M85.2854 77.9208V82.9908H44.9954C44.6054 82.9908 44.2154 82.9808 43.8354 82.9608C43.1454 82.9208 42.6354 82.8708 42.1454 82.7908C41.8654 82.7508 41.5954 82.7008 41.3254 82.6408C41.0454 82.5808 40.7754 82.5208 40.5054 82.4508C40.3054 82.4008 40.1054 82.3408 39.9054 82.2808C38.4654 81.8508 37.0954 81.2208 35.8154 80.3808C34.7154 79.6908 33.6854 78.8408 32.7054 77.8608C32.5154 77.6608 32.3654 77.5108 32.2254 77.3608L32.2054 77.3408C32.1454 77.2708 32.0754 77.1908 32.0054 77.1208C31.8354 76.9308 31.6754 76.7408 31.5154 76.5408C31.4154 76.4108 31.3054 76.2908 31.2054 76.1508C31.1154 76.0408 31.0354 75.9208 30.9454 75.8108C30.8554 75.6808 30.7654 75.5608 30.6754 75.4308C30.5954 75.3108 30.5354 75.2308 30.4854 75.1508C30.4054 75.0308 30.3254 74.9108 30.2554 74.7908C30.0954 74.5508 29.9554 74.3008 29.8154 74.0608C29.6854 73.8308 29.5554 73.6008 29.4454 73.3708C29.3654 73.2108 29.2954 73.0608 29.2154 72.9008C29.1054 72.6608 28.9954 72.4108 28.8954 72.1608C28.7754 71.8608 28.6654 71.5608 28.5554 71.2508C28.5254 71.1508 28.4854 71.0408 28.4554 70.9408C28.3954 70.7308 28.3654 70.6508 28.3354 70.5608C28.3154 70.4908 28.2954 70.4108 28.2754 70.3408H33.5954C33.6254 70.4208 33.6654 70.4908 33.6954 70.5708C33.7854 70.7508 33.8754 70.9408 33.9654 71.1208C34.0654 71.3008 34.1654 71.4808 34.2754 71.6608C34.4754 72.0008 34.5454 72.1008 34.6054 72.2008C34.7754 72.4408 34.9554 72.6908 35.1454 72.9508C35.2754 73.1108 35.4754 73.3708 35.7554 73.6908C35.9354 73.8908 36.0654 74.0308 36.1954 74.1608L36.2054 74.1808C36.3154 74.2908 36.4354 74.4108 36.5554 74.5208C36.8854 74.8408 36.9754 74.9208 37.1454 75.0608C37.3054 75.2008 37.5055 75.3508 37.7154 75.5208C37.9054 75.6508 38.0954 75.7908 38.2954 75.9308C38.4954 76.0708 38.7154 76.2008 38.9154 76.3308C39.1154 76.4508 39.3154 76.5608 39.5154 76.6608C39.7454 76.7808 39.9754 76.8908 40.2154 76.9908C40.4354 77.0808 40.6554 77.1708 40.8754 77.2508C41.1054 77.3308 41.3154 77.4208 41.6254 77.4908C41.8254 77.5408 42.0154 77.5908 42.2154 77.6408C42.3954 77.6808 42.4954 77.7008 42.5954 77.7208H42.6154C42.8854 77.7708 43.0154 77.7908 43.0154 77.7908C43.1954 77.8208 43.3754 77.8408 43.5554 77.8608L43.9154 77.8908C44.0354 77.9008 44.1854 77.9008 44.2554 77.9008C44.3354 77.9108 44.4054 77.9108 44.4854 77.9108C44.6454 77.9208 44.8154 77.9208 44.9854 77.9208H85.2754H85.2854Z" fill="#409B62"></path>
    <path fill-rule="evenodd" clip-rule="evenodd" d="M85.2853 83.0008V89.3608H44.9953C38.6053 89.3608 32.9653 87.0008 28.3953 82.4008C25.0153 78.9608 22.8453 74.8908 21.9453 70.3308H28.2853C28.4353 70.8108 28.5653 71.2408 28.9053 72.1508C29.0053 72.4008 29.1153 72.6508 29.2253 72.8908C29.3053 73.0508 29.3753 73.2008 29.4553 73.3608C29.5653 73.5908 29.6953 73.8208 29.8253 74.0508C29.9653 74.2908 30.1053 74.5408 30.2653 74.7808C30.3353 74.9008 30.4153 75.0208 30.4953 75.1408C30.5453 75.2208 30.6053 75.3008 30.6553 75.3808C30.7753 75.5508 30.8653 75.6708 30.9553 75.8008C31.0453 75.9108 31.1253 76.0308 31.2153 76.1408C31.3153 76.2808 31.4253 76.4008 31.5253 76.5308C31.6853 76.7308 31.8453 76.9208 32.0153 77.1108C32.0853 77.1808 32.1553 77.2608 32.2153 77.3308L32.2353 77.3508C32.3753 77.5008 32.5253 77.6508 32.6653 77.8008C32.6853 77.8208 32.7053 77.8408 32.7153 77.8508C33.6953 78.8308 34.7253 79.6808 35.8253 80.3708C37.1053 81.2108 38.4753 81.8408 39.9153 82.2708C40.1153 82.3308 40.3153 82.3908 40.5153 82.4408C40.7853 82.5108 41.0553 82.5708 41.3353 82.6308C41.6053 82.6908 41.8753 82.7408 42.1553 82.7808C42.6453 82.8608 43.1553 82.9108 43.6753 82.9508C43.7353 82.9508 43.7853 82.9508 43.8453 82.9508C44.2253 82.9808 44.6153 82.9908 45.0053 82.9908H85.2953L85.2853 83.0008Z" fill="black"></path>
    <path fill-rule="evenodd" clip-rule="evenodd" d="M85.2855 71.5708V77.9208H44.9955C44.8255 77.9208 44.6555 77.9208 44.4955 77.9108C44.4155 77.9108 44.3455 77.9108 44.2655 77.9008C44.1955 77.9008 44.1155 77.9008 44.0455 77.9008C43.9255 77.8908 43.5655 77.8608 43.5655 77.8608C43.3855 77.8408 43.2055 77.8208 43.0255 77.7908C42.8955 77.7708 42.7555 77.7508 42.6255 77.7208H42.6055C42.0255 77.5908 41.8355 77.5408 41.6355 77.4908C41.5955 77.4808 41.5455 77.4608 41.4955 77.4508C41.4055 77.4208 41.3155 77.3908 41.2255 77.3708C41.1055 77.3308 40.9955 77.2908 40.8855 77.2508C40.7655 77.2108 40.6555 77.1708 40.5355 77.1208C40.4355 77.0808 40.3355 77.0408 40.2255 76.9908C39.9855 76.8908 39.7555 76.7808 39.5255 76.6608C39.4255 76.6108 39.3255 76.5608 39.2355 76.5008C39.1255 76.4508 39.0255 76.3908 38.9255 76.3308C38.8255 76.2708 38.7155 76.2008 38.6055 76.1308C38.4955 76.0708 38.3955 76.0008 38.2955 75.9308C38.1955 75.8608 38.0955 75.7908 37.9855 75.7208C37.9055 75.6508 37.8155 75.5908 37.7255 75.5208C37.6155 75.4308 37.5055 75.3508 37.3955 75.2608C37.3555 75.2308 37.1855 75.0908 37.1555 75.0608C37.0755 74.9908 36.9855 74.9208 36.9155 74.8508C36.7855 74.7408 36.6755 74.6308 36.5655 74.5208C36.4455 74.4108 36.3255 74.2908 36.2155 74.1808H36.2055V74.1608C36.0755 74.0308 35.9455 73.8908 35.8255 73.7508C35.6255 73.5308 35.4855 73.3708 35.3555 73.2008C35.2855 73.1108 35.2255 73.0308 35.1555 72.9508C35.0955 72.8608 35.0255 72.7808 34.9655 72.6908C34.8455 72.5208 34.7855 72.4408 34.6155 72.2008C34.5555 72.1008 34.4855 72.0008 34.4255 71.9008C34.3755 71.8208 34.3255 71.7308 34.2855 71.6608C34.0755 71.3008 33.9755 71.1208 33.9755 71.1208C33.8855 70.9408 33.7955 70.7508 33.7055 70.5708C33.6755 70.4908 33.6355 70.4208 33.6055 70.3408H41.3155C42.4055 71.2008 43.5755 71.5808 45.0055 71.5808H85.2955L85.2855 71.5708Z" fill="black"></path>
    <path fill-rule="evenodd" clip-rule="evenodd" d="M85.2855 23.3608V29.7208H44.9955C40.2055 29.7208 36.1155 31.4408 32.7055 34.8708L32.6555 34.9108C32.0955 35.5008 31.7047 35.9908 31.2555 36.5208C31.1155 36.7008 30.9855 36.8708 30.8555 37.0408C30.7955 37.1308 30.7255 37.2208 30.6655 37.3108L30.4855 37.5808C30.4055 37.7008 30.3255 37.8208 30.2555 37.9308C30.0955 38.1808 29.9555 38.4208 29.8155 38.6708C29.6855 38.9008 29.5555 39.1208 29.4455 39.3608C29.3655 39.5108 29.2955 39.6708 29.2155 39.8308C29.1055 40.0708 28.9955 40.3208 28.8955 40.5708C28.8355 40.7208 28.7755 40.8708 28.7255 41.0208C28.6655 41.1608 28.6155 41.3208 28.5655 41.4708C28.5155 41.6208 28.4555 41.7708 28.4155 41.9308C28.3655 42.0808 28.3255 42.2308 28.2755 42.3908H21.9355C22.8355 37.8208 25.0055 33.7508 28.3855 30.3208C32.9655 25.7208 38.6055 23.3608 44.9955 23.3608H85.2855Z" fill="black"></path>
    <path d="M85.2851 47.4608H21.4551V53.8208H85.2851V47.4608Z" fill="black"></path>
    <path d="M85.2851 58.9008H21.4551V65.2608H85.2851V58.9008Z" fill="black"></path>
    <path d="M85.2847 34.7908V41.1508H44.9947C43.5547 41.1508 42.3847 41.5308 41.3047 42.3908H33.5947C33.7347 42.0908 33.8347 41.8908 33.8347 41.8908C33.9047 41.7308 34.0147 41.5208 34.1747 41.2508C34.3247 40.9808 34.4947 40.7108 34.6647 40.4508C34.7047 40.4008 34.7347 40.3508 34.7747 40.2908C34.8147 40.2308 34.8647 40.1608 34.9147 40.0908C34.9447 40.0408 35.0247 39.9308 35.0247 39.9308C35.1147 39.8108 35.2047 39.7008 35.2047 39.6708C35.3247 39.5508 35.4247 39.4208 35.5247 39.3008C35.6147 39.2008 35.7047 39.1008 35.7947 38.9908L35.9647 38.8108C36.0347 38.7308 36.1147 38.6508 36.1947 38.5708C36.3147 38.4408 36.4347 38.3208 36.5547 38.2108C36.6647 38.1008 36.7747 37.9908 36.8847 37.8908C37.0147 37.7808 37.1247 37.6808 37.2347 37.5908C37.3247 37.5208 37.3847 37.4708 37.3847 37.4708C37.4647 37.4008 37.5547 37.3308 37.6447 37.2708C37.8247 37.1308 37.9247 37.0508 38.0247 36.9808C38.2647 36.8108 38.5147 36.6408 38.7647 36.4908C38.8847 36.4208 38.9947 36.3508 39.1247 36.2808C39.2647 36.2008 39.3847 36.1308 39.5147 36.0708C39.6047 36.0208 39.7047 35.9708 39.8047 35.9308C39.9447 35.8608 40.0847 35.8008 40.2247 35.7308C40.3547 35.6808 40.4847 35.6308 40.6147 35.5808C40.7847 35.5208 40.9247 35.4708 41.0647 35.4208C41.1447 35.4008 41.2147 35.3808 41.2947 35.3508L41.5247 35.2808C41.5947 35.2608 41.7647 35.2108 41.7647 35.2108C41.8947 35.1808 42.0347 35.1408 42.0347 35.1408C42.1547 35.1108 42.2447 35.0908 42.3347 35.0708C42.4147 35.0508 42.5047 35.0408 42.5947 35.0208H42.6047C42.7347 34.9908 42.8747 34.9708 43.0047 34.9508C43.1847 34.9208 43.3647 34.9008 43.5447 34.8808L43.9047 34.8508C44.0947 34.8408 44.1747 34.8408 44.2447 34.8208C44.3247 34.8208 44.3947 34.8108 44.4747 34.8108C44.6347 34.8108 44.8047 34.8008 44.9747 34.8008H85.2647L85.2847 34.7908Z" fill="black"></path>
    <path d="M41.3051 42.3908C41.0551 42.5908 40.8051 42.8108 40.5651 43.0608C39.3051 44.3608 38.7451 45.7208 38.7051 47.4608H21.4551V47.3908C21.4551 45.6708 21.6151 44.0008 21.9351 42.3908H41.3051Z" fill="black"></path>
    <path d="M41.3051 70.3308H21.9351C21.6151 68.7208 21.4551 67.0608 21.4551 65.3308V65.2608H38.7051C38.7351 67.0008 39.3051 68.3608 40.5551 69.6508C40.8051 69.9108 41.0551 70.1408 41.3051 70.3308Z" fill="black"></path>
    <path d="M85.2851 53.8208H21.4551V58.9008H85.2851V53.8208Z" fill="#409B62"></path>
  </g>
  <defs>
    <clipPath id="clip0">
      <rect width="63.83" height="66" fill="white" transform="translate(21.4551 23.3608)"></rect>
    </clipPath>
  </defs>
</svg>